<?xml version="1.0" standalone="no"?>
<!DOCTYPE svg PUBLIC "-//W3C//DTD SVG 20010904//EN"
 "http://www.w3.org/TR/2001/REC-SVG-20010904/DTD/svg10.dtd">
<svg version="1.0" xmlns="http://www.w3.org/2000/svg"
 width="1800.000000pt" height="1800.000000pt" viewBox="0 0 1800.000000 1800.000000"
 preserveAspectRatio="xMidYMid meet">

<g transform="translate(0.000000,1800.000000) scale(0.100000,-0.100000)"
fill="#000000" stroke="none">
<path d="M8752 14017 c-25 -27 -30 -39 -133 -362 -49 -152 -88 -258 -101 -272
-26 -27 -42 -30 -203 -38 -115 -5 -205 -11 -460 -31 -108 -8 -131 -13 -150
-34 -27 -30 -22 -70 11 -98 16 -13 157 -93 314 -177 157 -84 291 -163 299
-174 12 -19 4 -51 -83 -316 -54 -161 -98 -308 -98 -325 -1 -39 36 -80 72 -80
31 0 24 -5 359 233 140 99 267 185 282 190 24 9 48 -1 240 -108 118 -64 254
-141 304 -169 72 -41 98 -51 136 -51 53 0 89 24 89 61 0 24 -105 280 -194 470
-31 66 -56 128 -56 137 0 31 54 75 310 253 140 97 265 186 278 197 29 27 29
77 1 103 -15 13 -36 19 -73 19 -66 0 -282 -13 -411 -25 -219 -20 -301 -23
-324 -10 -25 13 -23 8 -171 350 -57 129 -112 245 -123 258 -28 30 -86 30 -115
-1z m147 -509 l40 -98 -24 0 c-14 0 -56 -5 -94 -12 -39 -7 -74 -9 -78 -5 -7 8
37 156 65 215 14 32 16 33 33 15 9 -10 36 -62 58 -115z m738 -232 c4 -4 -302
-219 -319 -224 -19 -4 -44 40 -84 143 l-23 62 57 7 c31 3 107 9 167 12 61 4
111 8 113 9 3 2 86 -5 89 -9z m-604 -76 c14 -16 30 -52 36 -81 6 -28 22 -70
36 -93 46 -78 40 -90 -95 -206 -128 -109 -154 -108 -365 21 -82 50 -85 53 -85
89 0 51 15 90 73 192 58 103 59 103 274 107 101 1 101 1 126 -29z m-576 -29
c-4 -32 -51 -175 -62 -189 -2 -3 -289 152 -350 189 l-30 19 70 1 c39 1 97 4
130 8 33 4 102 8 154 9 l94 3 -6 -40z m847 -543 c36 -81 66 -153 66 -159 0
-16 -14 -9 -193 88 -184 99 -181 86 -37 183 55 37 87 54 92 46 3 -6 36 -77 72
-158z m-693 66 c55 -31 101 -59 104 -63 5 -9 -127 -108 -240 -180 -44 -28 -81
-47 -83 -42 -9 26 94 341 111 341 5 0 54 -25 108 -56z"/>
<path d="M9826 12673 c-31 -62 -54 -74 -146 -82 l-75 -6 -3 -33 c-3 -26 4 -41
32 -72 47 -52 53 -81 31 -147 -32 -93 6 -127 98 -88 65 27 127 15 171 -34 21
-23 75 -28 94 -9 15 15 15 65 1 107 -14 39 4 70 62 106 46 29 65 68 50 101 -7
16 -22 23 -62 28 -60 8 -113 52 -125 102 -12 53 -31 74 -69 74 -31 0 -37 -5
-59 -47z"/>
<path d="M8352 12086 c-17 -15 -47 -49 -68 -77 -47 -64 -82 -83 -132 -70 -20
5 -83 13 -138 17 -96 6 -103 5 -113 -14 -12 -23 -14 -62 -5 -86 3 -9 28 -32
54 -51 66 -48 97 -112 81 -164 -6 -21 -24 -58 -41 -82 -33 -50 -39 -102 -14
-137 19 -28 55 -28 163 -1 57 14 97 19 126 15 42 -7 135 -59 135 -77 0 -5 24
-25 54 -45 98 -65 130 -33 132 128 0 59 5 102 12 111 7 8 34 22 60 32 105 40
150 66 162 95 29 70 -2 95 -162 130 -51 11 -99 27 -107 34 -18 19 -61 152 -61
192 0 38 -26 63 -72 70 -27 5 -40 1 -66 -20z"/>
<path d="M11545 10263 c-85 -62 -141 -120 -163 -167 -21 -44 -35 -116 -24
-116 19 0 151 112 184 156 38 49 72 132 66 157 -2 10 -22 0 -63 -30z"/>
<path d="M10159 10269 c-101 -8 -229 -35 -339 -70 -213 -69 -353 -217 -395
-417 -24 -110 -17 -265 11 -276 22 -9 81 50 112 113 l29 58 -16 75 c-19 98 -7
162 47 232 52 68 128 111 246 141 55 13 103 22 108 19 4 -3 8 -22 8 -42 0 -79
-82 -870 -97 -932 -9 -37 -42 -102 -67 -129 -34 -38 -63 -44 -117 -25 -33 12
-54 15 -68 8 -21 -9 -133 -136 -126 -142 11 -12 322 -33 490 -34 155 -1 218 3
280 16 167 37 314 112 437 225 305 280 384 814 150 1022 -129 115 -420 181
-693 158z m266 -124 c268 -71 388 -250 372 -555 -15 -283 -172 -540 -368 -601
-48 -15 -91 -19 -207 -19 -143 0 -322 16 -322 29 0 4 18 25 41 46 44 43 81
107 98 172 6 22 25 175 41 338 53 530 60 588 73 603 15 19 182 11 272 -13z"/>
<path d="M6496 10224 c-104 -70 -141 -115 -213 -257 -84 -168 -361 -677 -381
-699 -8 -10 -18 -18 -22 -18 -4 0 -29 62 -55 138 -26 75 -76 216 -111 313 -71
200 -98 298 -116 425 -16 111 -25 118 -148 110 -204 -13 -332 -66 -450 -185
-135 -137 -193 -309 -160 -482 6 -29 14 -57 19 -62 11 -11 107 75 127 115 18
35 18 77 -2 124 -22 53 -15 138 17 200 50 97 177 158 320 152 72 -3 74 -4 77
-30 4 -30 -120 -809 -143 -900 -17 -67 -55 -146 -81 -170 -13 -11 -36 -16 -71
-15 -61 1 -106 -26 -166 -98 l-38 -45 208 0 c230 0 237 2 287 63 38 47 31 53
-76 62 -43 4 -78 9 -78 12 0 3 19 26 41 51 71 80 83 119 139 457 28 171 54
318 57 329 13 46 272 -642 304 -807 7 -38 17 -66 23 -64 27 8 139 195 261 437
143 285 272 496 292 477 3 -4 1 -70 -6 -146 -7 -77 -14 -215 -16 -308 -2 -92
-6 -226 -10 -298 -7 -139 5 -262 27 -277 7 -5 22 -7 33 -4 256 51 330 75 330
107 0 11 -21 15 -90 19 l-90 5 -17 34 c-27 54 -31 166 -19 485 14 367 27 526
52 675 10 63 18 116 16 117 -2 2 -33 -17 -71 -42z"/>
<path d="M7952 9815 c-59 -27 -178 -140 -187 -178 -15 -57 23 -79 49 -29 28
52 73 92 104 92 16 0 34 -6 39 -12 18 -24 33 -131 33 -239 0 -153 19 -455 31
-512 6 -27 22 -61 36 -78 65 -76 164 -9 335 229 33 46 64 80 68 75 9 -10 -66
-435 -105 -589 -62 -247 -123 -348 -253 -411 -75 -37 -187 -42 -290 -15 l-73
20 -54 -65 c-30 -35 -55 -68 -55 -72 0 -15 87 -31 168 -31 96 0 160 18 277 78
74 38 107 63 185 142 111 111 163 196 220 358 43 123 64 217 145 647 31 165
72 369 91 454 18 85 34 156 34 158 0 1 -15 -4 -32 -11 -18 -8 -51 -20 -72 -28
-57 -19 -75 -50 -90 -154 -19 -124 -51 -233 -96 -331 -81 -174 -212 -327 -263
-307 -36 13 -51 113 -67 434 -14 302 -20 330 -66 371 -31 27 -60 28 -112 4z"/>
<path d="M12399 9830 c-15 -4 -55 -23 -90 -41 -70 -37 -222 -180 -278 -261
-56 -83 -68 -62 -51 87 7 58 9 122 5 141 -13 70 -68 92 -143 57 -96 -45 -236
-241 -193 -267 5 -4 32 25 60 63 53 74 79 95 105 85 36 -14 34 -57 -25 -567
-19 -164 -28 -272 -22 -278 15 -15 111 19 127 44 8 12 20 69 26 127 31 287 89
432 231 572 88 88 136 110 189 88 51 -21 51 -54 4 -380 -14 -96 -27 -227 -30
-290 -6 -128 2 -156 49 -178 39 -19 102 12 184 90 79 77 118 138 109 174 -4
14 -12 24 -19 22 -7 -3 -34 -36 -60 -74 -50 -72 -74 -91 -103 -80 -15 6 -16
19 -11 114 3 59 18 184 32 277 31 196 39 395 16 437 -13 25 -50 49 -74 47 -7
0 -24 -4 -38 -9z"/>
<path d="M13165 9817 c-112 -41 -272 -225 -346 -397 -122 -287 -74 -530 117
-586 47 -13 55 -13 116 6 107 33 209 119 293 248 26 39 27 44 12 59 -18 18
-47 11 -47 -13 0 -26 -78 -112 -128 -141 -89 -52 -194 -29 -239 53 -34 60 -50
129 -34 147 6 9 59 38 117 66 142 70 237 159 295 276 72 145 62 254 -26 291
-44 18 -58 17 -130 -9z m2 -128 c54 -20 73 -48 73 -104 0 -132 -128 -255 -268
-255 -64 0 -69 9 -51 93 26 124 116 257 183 270 11 2 24 5 28 6 4 0 19 -4 35
-10z"/>
<path d="M11273 9800 c-99 -57 -213 -194 -198 -240 3 -11 10 -20 14 -20 4 0
29 30 55 66 59 80 86 100 115 84 28 -14 27 -21 -14 -305 -19 -132 -40 -295
-46 -363 -11 -109 -11 -126 4 -157 15 -31 21 -35 57 -35 53 0 91 20 158 84 45
42 92 109 92 131 0 18 -42 -1 -75 -35 -42 -43 -65 -49 -85 -25 -10 13 -11 33
-1 103 77 543 88 657 67 705 -14 33 -19 37 -53 37 -24 0 -57 -11 -90 -30z"/>
<path d="M7293 9806 c-80 -19 -184 -73 -251 -132 -111 -97 -213 -266 -248
-409 -21 -86 -25 -293 -6 -346 59 -170 277 -87 482 185 77 103 89 98 71 -28
-13 -98 -14 -176 -2 -209 13 -34 58 -48 103 -32 97 33 255 213 246 278 -5 38
-32 30 -52 -15 -42 -90 -134 -160 -152 -114 -7 18 39 398 72 599 28 173 29
200 9 217 -23 19 -197 23 -272 6z m79 -120 c21 -10 40 -26 43 -35 9 -28 -23
-184 -55 -272 -42 -117 -107 -213 -203 -306 -92 -88 -119 -101 -172 -79 -45
19 -49 39 -42 195 10 243 96 438 219 500 52 27 152 25 210 -3z"/>
<path d="M9710 7748 c-172 -17 -174 -18 -182 -63 -8 -48 -13 -1864 -4 -1872 3
-3 63 0 133 7 266 26 592 1 768 -60 70 -24 101 -25 109 -4 3 9 6 434 6 945 0
1059 10 953 -92 984 -215 64 -500 88 -738 63z"/>
<path d="M7433 7593 c-10 -3 -13 -208 -13 -933 l0 -928 24 -20 c28 -21 175
-63 316 -89 159 -29 607 -21 661 13 5 3 7 423 6 934 -2 847 -3 931 -18 946
-15 15 -27 15 -125 3 -244 -28 -524 -10 -724 47 -114 33 -113 33 -127 27z"/>
<path d="M11020 5269 c-82 -16 -144 -55 -230 -145 -138 -147 -216 -336 -255
-626 -17 -124 -14 -175 21 -362 47 -248 155 -451 270 -507 133 -64 371 14 546
179 99 94 126 153 108 239 -19 87 -76 130 -148 111 -23 -6 -45 -25 -75 -66
-23 -31 -63 -78 -89 -104 -40 -40 -54 -48 -84 -48 -43 0 -90 27 -121 67 -123
167 -163 466 -92 681 27 80 109 205 157 237 90 61 151 18 201 -144 39 -125 72
-167 124 -157 74 15 134 125 123 226 -14 127 -163 349 -269 398 -51 24 -127
33 -187 21z"/>
<path d="M11875 5256 c-71 -22 -128 -57 -188 -115 -71 -67 -103 -127 -115
-212 -11 -76 -10 -703 2 -939 8 -186 21 -235 70 -278 44 -39 155 -66 261 -66
72 1 96 7 245 62 136 50 171 67 198 96 29 32 32 42 32 98 0 45 -7 77 -24 113
-47 99 -94 118 -246 98 -108 -14 -180 -16 -196 -5 -20 13 -36 54 -30 78 5 19
19 27 74 43 37 10 89 22 115 25 98 12 149 58 193 172 23 60 12 102 -42 168
-69 83 -103 101 -197 101 -71 0 -81 3 -98 24 -45 56 -20 93 104 151 127 60
149 82 155 154 6 69 -11 118 -57 169 -64 71 -157 94 -256 63z"/>
<path d="M6425 5214 c-58 -11 -217 -67 -395 -136 -111 -44 -126 -64 -135 -191
-4 -51 -4 -172 -1 -268 3 -96 9 -388 12 -649 5 -379 9 -479 20 -497 33 -52
154 -56 205 -7 41 39 49 78 49 249 0 178 14 307 39 355 19 37 13 34 271 141
139 57 154 72 148 150 -5 63 -23 97 -72 133 -34 26 -172 35 -253 17 -64 -15
-85 -6 -113 49 -24 47 -26 129 -5 170 15 30 64 71 100 85 11 4 75 13 143 20
99 11 131 18 167 40 116 68 134 201 38 286 -63 54 -131 71 -218 53z"/>
<path d="M7257 5218 c-120 -16 -217 -85 -265 -188 -29 -62 -29 -64 -22 -585 2
-210 -1 -317 -13 -431 -21 -195 -10 -277 52 -368 26 -39 57 -55 104 -56 76 0
119 40 162 155 27 71 31 119 14 179 -13 47 1 87 37 106 22 12 30 10 94 -34 51
-35 89 -73 144 -145 144 -189 235 -241 342 -196 74 31 98 167 46 266 -23 44
-42 64 -107 107 -117 79 -178 135 -224 203 -65 97 -58 131 41 196 122 80 148
132 148 295 -1 124 -9 175 -42 244 -78 166 -307 279 -511 252z m229 -402 c25
-25 44 -53 44 -65 0 -35 -28 -81 -88 -143 -45 -48 -61 -58 -88 -58 -49 0 -64
28 -64 123 0 87 12 120 60 161 48 40 84 35 136 -18z"/>
<path d="M8530 5171 c-81 -17 -164 -92 -206 -187 -23 -51 -127 -460 -188 -736
-39 -176 -58 -314 -54 -401 3 -71 6 -81 30 -102 54 -46 160 -42 205 8 30 32
87 151 122 251 16 48 36 98 45 111 22 33 76 49 143 40 70 -9 93 -30 93 -87 0
-71 20 -170 44 -224 75 -164 292 -231 366 -112 19 30 21 45 17 163 -2 75 -11
158 -20 195 -58 225 -119 488 -132 565 -23 138 -66 276 -109 350 -37 63 -115
130 -172 148 -62 19 -139 27 -184 18z m168 -60 c121 -62 201 -229 262 -551 35
-185 88 -404 120 -495 27 -75 38 -271 18 -295 -46 -56 -107 -64 -185 -25 -88
44 -123 106 -148 261 -8 54 -20 112 -27 127 -16 40 -58 58 -156 64 -82 5 -88
4 -109 -18 -12 -13 -36 -65 -54 -114 -56 -159 -113 -271 -147 -289 -57 -29
-130 -18 -152 23 -27 51 177 1032 240 1154 36 70 114 139 185 165 48 17 112
14 153 -7z"/>
<path d="M8594 4846 c-44 -31 -71 -121 -85 -278 -13 -161 -10 -177 45 -213 28
-18 145 -30 165 -17 42 29 38 391 -5 474 -24 47 -79 62 -120 34z m83 -73 c18
-41 31 -283 19 -348 -7 -33 -9 -35 -46 -35 -53 0 -89 15 -99 42 -12 31 6 231
26 293 23 74 31 85 59 85 19 0 29 -8 41 -37z"/>
<path d="M10115 5166 c-44 -20 -85 -68 -91 -107 -3 -20 7 -100 25 -189 16 -85
40 -216 52 -291 25 -151 20 -179 -33 -209 -48 -26 -70 -3 -175 180 -213 370
-275 442 -378 442 -101 0 -173 -74 -232 -236 -20 -56 -44 -389 -50 -683 -4
-226 -3 -245 16 -287 26 -59 69 -86 137 -86 93 0 153 62 173 177 7 37 17 88
23 113 7 30 7 78 1 143 -14 157 11 168 90 40 30 -49 88 -156 131 -240 86 -171
115 -204 203 -229 111 -32 266 5 329 79 45 53 72 126 83 222 33 285 41 562 21
695 -15 101 -32 184 -40 195 -4 6 -10 23 -14 40 -8 32 -87 143 -133 187 -22
21 -92 59 -105 58 -2 -1 -16 -7 -33 -14z m126 -85 c47 -48 115 -175 138 -257
27 -92 35 -469 16 -694 -21 -238 -73 -338 -196 -374 -66 -20 -102 -20 -165 -1
-85 25 -122 66 -214 242 -105 200 -166 300 -195 319 -27 17 -68 6 -80 -23 -4
-10 -9 -83 -11 -163 -2 -80 -7 -176 -12 -215 -18 -138 -95 -205 -182 -160 -51
27 -66 134 -50 376 6 85 15 249 19 364 8 179 12 219 31 270 46 123 108 185
185 185 76 0 106 -32 244 -266 198 -335 224 -368 287 -368 46 0 93 48 95 97 5
125 -7 219 -58 448 -23 107 -34 175 -29 193 10 42 53 76 94 76 30 0 44 -8 83
-49z"/>
</g>
</svg>
